<?xml version="1.0" encoding="utf-8"?>
<!-- Generator: Adobe Illustrator 18.1.1, SVG Export Plug-In . SVG Version: 6.00 Build 0)  -->
<svg version="1.1" id="Layer_1" xmlns="http://www.w3.org/2000/svg" xmlns:xlink="http://www.w3.org/1999/xlink" x="0px" y="0px"
	 viewBox="288 239.8 24 24" enable-background="new 288 239.8 24 24" xml:space="preserve">
<path d="M311.4,244.1v-1.6c0-0.4-0.4-0.8-0.9-0.6c0,0-1.4,0.5-2.7,0c-4-1.6-6.8,0-7.8,0.7c-1-0.8-3.8-2.3-7.8-0.7
	c-1.3,0.5-2.7,0-2.7,0c-0.5-0.2-0.9,0.2-0.9,0.6v1.6c-0.3,0-0.6,0.3-0.6,0.6v17.1c0,0.3,0.3,0.6,0.6,0.6h22.7c0.3,0,0.6-0.3,0.6-0.6
	v-17.1C312,244.4,311.7,244.1,311.4,244.1z M307.4,243.1c1,0.4,2.1,0.3,2.7,0.2v16.1c-0.5,0.1-1.4,0.3-2.3-0.1
	c-3.7-1.5-6.3-0.3-7.5,0.5V244C301.6,242.8,304.2,241.9,307.4,243.1z M289.9,243.4c0.7,0.1,1.7,0.2,2.7-0.2c3-1.2,5.6-0.5,7,0.9
	v15.8c-1.9-1.3-4.5-1.7-7.5-0.5c-0.9,0.3-1.8,0.2-2.3,0.1L289.9,243.4L289.9,243.4L289.9,243.4z"/>
</svg>
