<?xml version="1.0" encoding="utf-8"?>
<!-- Generator: Adobe Illustrator 18.1.1, SVG Export Plug-In . SVG Version: 6.00 Build 0)  -->
<svg version="1.1"
	 id="Layer_1" xmlns:rdf="http://www.w3.org/1999/02/22-rdf-syntax-ns#" xmlns:cc="http://creativecommons.org/ns#" xmlns:dc="http://purl.org/dc/elements/1.1/"
	 xmlns="http://www.w3.org/2000/svg" xmlns:xlink="http://www.w3.org/1999/xlink" x="0px" y="0px" viewBox="-11 288.9 24 24"
	 enable-background="new -11 288.9 24 24" xml:space="preserve">
<g transform="translate(-539.18 -568.86)">
	<path d="M535.7,879.5c9.1,0,14-7.5,14-14c0-0.2,0-0.4,0-0.6c1-0.7,1.8-1.6,2.5-2.5c-0.9,0.4-1.8,0.7-2.8,0.8c1-0.6,1.8-1.6,2.2-2.7
		c-1,0.6-2,1-3.1,1.2c-0.9-1-2.2-1.6-3.6-1.6c-2.7,0-4.9,2.2-4.9,4.9c0,0.4,0,0.8,0.1,1.1c-4.1-0.2-7.7-2.2-10.1-5.1
		c-0.4,0.7-0.7,1.6-0.7,2.5c0,1.7,0.9,3.2,2.2,4.1c-0.8,0-1.6-0.2-2.2-0.6c0,0,0,0,0,0.1c0,2.4,1.7,4.4,4,4.8
		c-0.4,0.1-0.8,0.2-1.3,0.2c-0.3,0-0.6,0-0.9-0.1c0.6,2,2.4,3.4,4.6,3.4c-1.7,1.3-3.8,2.1-6.1,2.1c-0.4,0-0.8,0-1.2-0.1
		C530.4,878.7,533,879.5,535.7,879.5"/>
</g>
</svg>
